<svg xmlns="http://www.w3.org/2000/svg" width="1248" height="73.63" viewBox="0 0 1248 73.63">
  <path fill="#1d81b7" fill-rule="evenodd" d="M1248,5798.52l-25.55.03,13.62-24.5-13.62-23.09-0.02.04-15.21-25.96,28.06-.04,0.02,0.05,12.7,21.63v51.84Zm-25.65,0-28.05.04-14.43-24.48-11.84,21.32-1.77,3.2-28.05.04,13.62-24.52,13.62-24.52,2.58-4.65,11.04-19.87,14.43,24.48,14.42,24.48Zm-69.72-48.9-13.62,24.49-2.58,4.64-11.04,19.85-28.05.04,13.62-24.5-13.62-23.09-0.02.04-15.21-25.97,28.06-.04,0.02,0.05,14.39,24.53,11.84-21.3,1.78-3.2,28.05-.04-8.13,14.63Zm-55.39,48.82-28.05.04L1054.77,5774l-11.85,21.32-1.77,3.2-28.05.03,13.62-24.51,13.62-24.52,2.58-4.65,11.05-19.87,14.42,24.48,14.43,24.48Zm-69.72-48.91-13.62,24.5-2.58,4.64-11.04,19.84-28.048.04,13.62-24.5-13.623-23.09-0.018.04L957,5725.04l28.058-.04,0.025,0.05,14.391,24.52,11.844-21.29,1.78-3.2,28.05-.04-8.14,14.62ZM972,5798.52l-28.048.04-14.427-24.48-11.84,21.32-1.778,3.2-28.048.04,13.62-24.52L915.1,5749.6l2.582-4.65,11.041-19.87,14.427,24.48,14.423,24.48Zm-69.717-48.9-13.62,24.49-2.583,4.64-11.039,19.85-28.048.04,13.62-24.5-13.623-23.09-0.018.04-15.209-25.97,28.057-.04,0.024,0.05,14.39,24.53,11.843-21.3,1.779-3.2,28.051-.04-8.135,14.63Zm-55.394,48.82-28.046.04L804.416,5774l-11.841,21.32-1.778,3.2-28.047.03,13.62-24.51,13.623-24.52,2.582-4.65L803.616,5725l14.427,24.48,14.424,24.48Zm-69.716-48.91-13.619,24.5-2.583,4.64-11.041,19.84-28.047.04,13.621-24.5-13.623-23.09-0.018.04-15.21-25.96,28.057-.04,0.025,0.05,14.391,24.52,11.842-21.29,1.779-3.2,28.049-.04-8.135,14.62Zm-55.391,48.99-28.047.04-14.427-24.48-11.841,21.32-1.778,3.2-28.047.04,13.62-24.52,13.622-24.52,2.583-4.65,11.041-19.87,14.427,24.48,14.423,24.48Zm-69.717-48.9-13.62,24.49-2.582,4.64-11.041,19.85-28.047.04,13.62-24.5-13.623-23.09-0.019.04-15.209-25.97,28.058-.04,0.024,0.05,14.388,24.53,11.845-21.3,1.779-3.2,28.051-.04-8.135,14.63Zm-55.392,48.82-28.046.04L554.2,5774l-11.841,21.32-1.778,3.2-28.047.03,13.62-24.51,13.623-24.52,2.582-4.65L553.4,5725l14.428,24.48,14.423,24.48Zm-69.716-48.91-13.62,24.5-2.583,4.64-11.04,19.84-28.048.04,13.62-24.5-13.623-23.09-0.018.04-15.209-25.96,28.058-.04,0.024,0.05,14.392,24.52,11.84-21.29,1.779-3.2,28.05-.04-8.134,14.62Zm-55.394,48.99-28.047.04-14.426-24.48-11.841,21.32-1.778,3.2-28.048.04,13.62-24.52,13.624-24.52,2.582-4.65,11.041-19.87,14.427,24.48,14.424,24.48Zm-69.716-48.9-13.62,24.49-2.582,4.64-11.04,19.85-28.047.04,13.619-24.5-13.623-23.09-0.018.04-15.209-25.97,28.057-.04,0.024,0.05,14.389,24.53,11.845-21.3,1.778-3.2,28.051-.04-8.135,14.63Zm-55.392,48.82-28.047.04L303.982,5774l-11.842,21.32-1.778,3.2-28.047.03,13.62-24.51,13.624-24.52,2.581-4.65L303.182,5725l14.426,24.48,14.425,24.48Zm-69.717-48.91-13.619,24.5-2.582,4.64L249.5,5798.51l-28.047.04,13.619-24.5-13.622-23.09-0.018.04-15.211-25.96,28.058-.04,0.025,0.05,14.391,24.52,11.842-21.29,1.778-3.2,28.05-.04-8.135,14.62Zm-55.392,48.99-28.047.04-14.426-24.48-11.842,21.32-1.778,3.2-28.047.04,13.62-24.52,13.622-24.52,2.583-4.65,11.041-19.87,14.427,24.48,14.423,24.48Zm-69.717-48.9-13.62,24.49-2.581,4.64-11.042,19.85-28.047.04,13.62-24.5-13.624-23.09-0.017.04-15.21-25.97,28.058-.04,0.024,0.05,14.388,24.53,11.846-21.3,1.778-3.2,28.05-.04-8.135,14.63Zm-55.393,48.82-28.047.04L53.763,5774l-11.841,21.32-1.779,3.2-28.048.03,13.62-24.51,13.623-24.52,2.583-4.65L52.964,5725l14.426,24.48,14.424,24.48ZM26.52,5749.53L12.9,5774.03l-2.583,4.64L0,5797.22v-50.4l10.316-18.54,1.778-3.2,28.05-.04-8.134,14.62Z" transform="translate(0 -5725)"/>
</svg>