<svg xmlns="http://www.w3.org/2000/svg" xmlns:xlink="http://www.w3.org/1999/xlink" width="43" height="34.845" viewBox="0 0 43 34.845"><defs><clipPath id="a"><path d="M0,0H41.517V23.724H0Z" fill="none"/></clipPath></defs><path d="M0,0H41.517V23.724H0Z" fill="none"/><g clip-path="url(#a)"><path d="M20.759,23.724a.727.727,0,0,1-.359-.094L.382,12.51a.741.741,0,0,1,0-1.3L20.4.094a.736.736,0,0,1,.719,0l20.018,11.12a.742.742,0,0,1,0,1.3L21.119,23.63A.733.733,0,0,1,20.759,23.724Zm0-22.135h0L2.269,11.862l18.49,10.273,18.49-10.273L20.759,1.589Z" transform="translate(0 0)" fill="#1d81b7"/></g><path d="M.741,14.828A.741.741,0,0,1,0,14.086V.741a.741.741,0,0,1,1.483,0V14.086a.741.741,0,0,1-.741.741" transform="translate(40.034 11.206)" fill="#1d81b7"/><path d="M2.224,4.449A2.224,2.224,0,1,1,4.449,2.224,2.227,2.227,0,0,1,2.224,4.449Zm0-2.965a.741.741,0,1,0,.742.741A.742.742,0,0,0,2.224,1.483Z" transform="translate(38.552 24.466)" fill="#1d81b7"/><path d="M.741,15.569A.741.741,0,0,1,0,14.828V.741a.741.741,0,0,1,1.483,0V14.828a.741.741,0,0,1-.741.741" transform="translate(31.138 16.396)" fill="#1d81b7"/><path d="M.741,15.569A.741.741,0,0,1,0,14.828V.741a.741.741,0,0,1,1.483,0V14.828a.741.741,0,0,1-.741.741" transform="translate(8.897 16.396)" fill="#1d81b7"/><path d="M11.862,4.3A23.184,23.184,0,0,1,.348,1.37.741.741,0,0,1,1.134.113a22.115,22.115,0,0,0,10.728,2.7A22.115,22.115,0,0,0,22.59.113a.741.741,0,0,1,.787,1.257A23.184,23.184,0,0,1,11.862,4.3" transform="translate(8.897 30.55)" fill="#1d81b7"/></svg>