<?xml version="1.0" encoding="UTF-8"?>
<svg width="205px" height="152px" viewBox="0 0 205 152" version="1.1" xmlns="http://www.w3.org/2000/svg" xmlns:xlink="http://www.w3.org/1999/xlink">
    <!-- Generator: Sketch 63.1 (92452) - https://sketch.com -->
    <title>Group 7 Copy 2</title>
    <desc>Created with Sketch.</desc>
    <g id="Design" stroke="none" stroke-width="1" fill="none" fill-rule="evenodd">
        <g id="Group-7-Copy-2">
            <g id="noun_School_2673343" fill-rule="nonzero">
                <g id="Group">
                    <path d="M141.3125,140.125 L195.9375,140.125 L195.9375,76 L141.3125,76 L141.3125,140.125 Z M173.375,99.75 L185.25,99.75 L185.25,123.5 L173.375,123.5 L173.375,99.75 Z M152,99.75 L163.875,99.75 L163.875,123.5 L152,123.5 L152,99.75 Z" id="Shape" fill="#1D81B7"></path>
                    <polygon id="Path" fill="#6FA935" points="119.9375 140.125 119.9375 109.25 86.6875 109.25 86.6875 140.125 93.8125 140.125 93.8125 116.375 112.8125 116.375 112.8125 140.125"></polygon>
                    <rect id="Rectangle" fill="#1D81B7" x="141.3125" y="64.125" width="61.75" height="7.125"></rect>
                    <path d="M136.5625,49.875 L70.0625,49.875 L70.0625,140.125 L81.9375,140.125 L81.9375,109.25 L77.1875,109.25 L77.1875,97.375 L129.4375,97.375 L129.4375,109.25 L124.6875,109.25 L124.6875,140.125 L136.5625,140.125 L136.5625,49.875 Z M103.3125,85.5 C96.7515625,85.5 91.4375,80.1859375 91.4375,73.625 C91.4375,67.0640625 96.7515625,61.75 103.3125,61.75 C109.873438,61.75 115.1875,67.0640625 115.1875,73.625 C115.1875,80.1859375 109.873438,85.5 103.3125,85.5 Z" id="Shape" fill="#6FA935"></path>
                    <path d="M65.3125,140.125 L65.3125,76 L10.6875,76 L10.6875,140.125 L65.3125,140.125 Z M42.75,99.75 L54.625,99.75 L54.625,123.5 L42.75,123.5 L42.75,99.75 Z M21.375,99.75 L33.25,99.75 L33.25,123.5 L21.375,123.5 L21.375,99.75 Z" id="Shape" fill="#1D81B7"></path>
                    <rect id="Rectangle" fill="#1D81B7" x="3.5625" y="64.125" width="61.75" height="7.125"></rect>
                    <rect id="Rectangle" fill="#1D81B7" x="0" y="144.875" width="204.25" height="7.125"></rect>
                    <rect id="Rectangle" fill="#6FA935" x="81.9375" y="102.125" width="42.75" height="2.375"></rect>
                    <rect id="Rectangle" fill="#6FA935" x="98.5625" y="121.125" width="9.5" height="19"></rect>
                    <polygon id="Path" fill="#6FA935" points="143.6875 38 105.6875 38 105.6875 35.625 105.6875 23.75 105.6875 19 122.3125 19 122.3125 7.125 105.6875 7.125 105.6875 4.75 105.6875 2.375 105.6875 0 100.9375 0 100.9375 2.375 100.9375 7.125 100.9375 21.375 100.9375 35.625 100.9375 38 62.9375 38 62.9375 45.125 143.6875 45.125"></polygon>
                </g>
            </g>
            <g id="Group-2-Copy-6" transform="translate(94.600000, 69.600000)">
                <path d="M8.52164695,5.9931937 L10.2849316,8.98515615 L6.85665914,8.98984199 L8.52164695,5.9931937 Z M11.9499651,5.98854216 L10.2849773,8.98507615 L8.52169267,5.99322799 L10.1866805,2.99655685 L11.8517597,4.4408921e-15 L13.6150101,2.99189387 L17.1416479,8.97569305 L13.7133754,8.98037889 L11.9499651,5.98854216 Z" id="Combined-Shape" fill="#6FA935"></path>
                <path d="M3.42826861,3.33066907e-15 L3.366,0.125 L3.42825718,0.0142254271 L5.19165413,3.00304931 L5.19155126,3.00286664 L6.85656008,0.0093846718 L8.61999132,2.99820855 L6.95500536,5.99182752 L5.192,3.003 L6.95492536,5.99169052 L5.2899394,8.98508115 L1.86151077,8.98984199 L3.52649673,5.99633719 L1.861,3.173 L1.85891648,3.17818849 L2.82440737e-13,0.00490925654 L3.42826861,3.33066907e-15 Z M10.2849887,0.00486358903 L8.62000275,2.99825422 L6.8566058,0.0094303393 L10.2849887,0.00486358903 Z" id="Combined-Shape" fill="#1D81B7"></path>
            </g>
        </g>
    </g>
</svg>