<svg xmlns="http://www.w3.org/2000/svg" xmlns:xlink="http://www.w3.org/1999/xlink" width="376" height="30" viewBox="0 0 376 30"><defs><clipPath id="a"><rect width="376" height="30" transform="translate(0.723 22)" fill="#1d81b7"/></clipPath></defs><g transform="translate(-0.723 -22)" clip-path="url(#a)"><g transform="translate(-229 21.918)"><path d="M16.57,0,12.093,8.056,11.046,9.939l-5.524,9.94L0,29.819,11.372,29.8h0l.721-1.3,4.8-8.64h0l5.848,9.924,11.372-.016-5.848-9.924-5.85-9.926Z" transform="translate(22.744 0)" fill="#fff"/><path d="M11.376,0,0,.016,6.167,10.543l.007-.016L11.7,19.888,6.176,29.819,17.547,29.8h0l4.476-8.046,1.047-1.882,5.522-9.93,2.226-4,3.3-5.928L22.744.03l-.721,1.3-4.8,8.633L11.386.02Z" transform="translate(0 0)" fill="#fff"/><path d="M12.093,8.056,11.046,9.94,5.522,19.879,0,29.819,11.372,29.8h0l.721-1.3,4.8-8.64h0l5.848,9.924,11.371-.016-5.848-9.924-5.85-9.925L16.569,0Z" transform="translate(73.471 0.033)" fill="#fff"/><path d="M0,.016,6.167,10.543l.007-.016L11.7,19.888,6.176,29.819,17.547,29.8h0l4.477-8.046,1.047-1.882,5.522-9.929,2.225-4,3.3-5.929L22.745.03l-.721,1.3-4.8,8.633L11.386.021,11.376,0Z" transform="translate(50.726 0.033)" fill="#fff"/><path d="M16.57,0,12.093,8.056,11.046,9.939l-5.524,9.94L0,29.819,11.372,29.8h0l.721-1.3,4.8-8.64h0l5.848,9.924,11.372-.016-5.848-9.924-5.85-9.926Z" transform="translate(124.196 0)" fill="#fff"/><path d="M11.376,0,0,.016,6.167,10.543l.007-.016L11.7,19.888,6.176,29.819,17.548,29.8h0l4.476-8.046,1.047-1.882,5.522-9.93,2.225-4,3.3-5.928L22.745.03l-.721,1.3-4.8,8.633L11.386.02Z" transform="translate(101.451 0)" fill="#fff"/><path d="M12.093,8.056,11.046,9.94,5.522,19.879,0,29.819,11.372,29.8h0l.721-1.3,4.8-8.64h0l5.848,9.924,11.372-.016-5.848-9.924-5.85-9.925L16.57,0Z" transform="translate(174.922 0.033)" fill="#fff"/><path d="M0,.016,6.167,10.543l.007-.016L11.7,19.888,6.176,29.819,17.547,29.8h0l4.476-8.046,1.047-1.882,5.522-9.929,2.225-4,3.3-5.929L22.744.03l-.721,1.3-4.8,8.633L11.386.021,11.376,0Z" transform="translate(152.177 0.033)" fill="#fff"/><path d="M16.569,0,12.092,8.056,11.046,9.939l-5.524,9.94L0,29.819,11.372,29.8h0l.721-1.3,4.8-8.64h0l5.848,9.924,11.372-.016-5.848-9.924-5.85-9.926Z" transform="translate(225.648 0)" fill="#fff"/><path d="M11.376,0,0,.016,6.167,10.543l.007-.016L11.7,19.888,6.175,29.819,17.547,29.8h0l4.476-8.046,1.047-1.882,5.522-9.93,2.225-4,3.3-5.928L22.745.03l-.721,1.3-4.8,8.633L11.386.02Z" transform="translate(202.903 0)" fill="#fff"/><path d="M12.093,8.056,11.046,9.94,5.522,19.879,0,29.819,11.372,29.8h0l.721-1.3,4.8-8.64h0l5.848,9.924,11.371-.016-5.848-9.924-5.85-9.925L16.569,0Z" transform="translate(276.374 0.033)" fill="#fff"/><path d="M0,.016,6.167,10.543l.008-.016L11.7,19.888,6.176,29.819,17.547,29.8h0l4.476-8.046,1.047-1.882,5.522-9.929,2.226-4,3.3-5.929L22.745.03l-.721,1.3-4.8,8.633L11.386.021,11.376,0Z" transform="translate(253.629 0.033)" fill="#fff"/><path d="M16.569,0,12.093,8.056,11.046,9.939l-5.523,9.94L0,29.819,11.372,29.8h0l.721-1.3,4.8-8.64h0l5.848,9.924,11.371-.016-5.848-9.924-5.85-9.926Z" transform="translate(327.099 0)" fill="#fff"/><path d="M11.376,0,0,.016,6.167,10.543l.007-.016L11.7,19.888,6.175,29.819,17.547,29.8h0l4.476-8.046,1.047-1.882,5.522-9.93,2.225-4,3.3-5.928L22.744.03l-.721,1.3-4.8,8.633L11.386.02Z" transform="translate(304.355 0)" fill="#fff"/><path d="M12.093,8.056,11.046,9.94,5.522,19.879,0,29.819,11.372,29.8h0l.721-1.3,4.8-8.64h0l5.848,9.924,11.372-.016-5.848-9.924-5.85-9.925L16.57,0Z" transform="translate(377.825 0.033)" fill="#fff"/><path d="M0,.016,6.167,10.543l.007-.016L11.7,19.888,6.175,29.819,17.547,29.8h0l4.476-8.046,1.047-1.882,5.522-9.929,2.225-4,3.3-5.929L22.744.03l-.721,1.3-4.8,8.633L11.386.021,11.376,0Z" transform="translate(355.081 0.033)" fill="#fff"/><path d="M16.57,0,12.093,8.056,11.046,9.939l-5.524,9.94L0,29.819,11.372,29.8h0l.721-1.3,4.8-8.64h0l5.848,9.924,11.372-.016-5.848-9.924-5.85-9.926Z" transform="translate(428.604 0)" fill="#fff"/><path d="M11.376,0,0,.016,6.167,10.543l.007-.016L11.7,19.888,6.175,29.819,17.548,29.8h0l4.476-8.046,1.047-1.882,5.522-9.93,2.225-4,3.3-5.928L22.744.03l-.72,1.3-4.8,8.633L11.386.02Z" transform="translate(405.859 0)" fill="#fff"/><path d="M12.093,8.056,11.046,9.94,5.522,19.879,0,29.819,11.372,29.8h0l.721-1.3,4.8-8.64h0l5.848,9.924,11.372-.016-5.848-9.924-5.85-9.925L16.57,0Z" transform="translate(479.33 0.033)" fill="#fff"/><path d="M0,.016,6.167,10.543l.007-.016L11.7,19.888,6.176,29.819,17.547,29.8h0l4.476-8.046,1.047-1.882,5.522-9.929,2.225-4,3.3-5.929L22.745.03l-.721,1.3-4.8,8.633L11.386.021,11.376,0Z" transform="translate(456.585 0.033)" fill="#fff"/><path d="M16.569,0,12.093,8.056,11.046,9.939l-5.524,9.94L0,29.819,11.372,29.8h0l.721-1.3,4.8-8.64h0l5.848,9.924,11.371-.016-5.848-9.924-5.85-9.926Z" transform="translate(530.056 0)" fill="#fff"/><path d="M11.376,0,0,.016,6.167,10.543l.007-.016L11.7,19.888,6.175,29.819,17.547,29.8h0l4.476-8.046,1.047-1.882,5.522-9.93,2.226-4,3.3-5.928L22.744.03l-.721,1.3-4.8,8.633L11.386.02Z" transform="translate(507.311 0)" fill="#fff"/><path d="M12.093,8.056,11.046,9.94,5.522,19.879,0,29.819,11.372,29.8h0l.721-1.3,4.8-8.64h0l5.848,9.924,11.372-.016-5.848-9.924-5.85-9.925L16.57,0Z" transform="translate(580.781 0.033)" fill="#fff"/><path d="M0,.016,6.167,10.543l.007-.016L11.7,19.888,6.176,29.819,17.548,29.8h0l4.476-8.046,1.047-1.882,5.522-9.929,2.226-4,3.3-5.929L22.745.03l-.721,1.3-4.8,8.633L11.386.021,11.376,0Z" transform="translate(558.036 0.033)" fill="#fff"/><path d="M16.569,0,12.093,8.056,11.046,9.939l-5.523,9.94L0,29.819,11.372,29.8h0l.721-1.3,4.8-8.64h0l5.848,9.924,11.372-.016-5.848-9.924-5.85-9.926Z" transform="translate(631.507 0)" fill="#fff"/><path d="M11.376,0,0,.016,6.167,10.543l.007-.016L11.7,19.888,6.175,29.819,17.547,29.8h0l4.476-8.046,1.047-1.882,5.522-9.93,2.225-4,3.3-5.928L22.744.03l-.721,1.3-4.8,8.633L11.386.02Z" transform="translate(608.763 0)" fill="#fff"/><path d="M12.093,8.056,11.046,9.94,5.522,19.879,0,29.819,11.372,29.8h0l.721-1.3,4.8-8.64h0l5.848,9.924,11.371-.016-5.848-9.924-5.85-9.925L16.569,0Z" transform="translate(682.233 0.033)" fill="#fff"/><path d="M0,.016,6.167,10.543l.007-.016L11.7,19.888,6.175,29.819,17.547,29.8h0l4.477-8.046,1.047-1.882,5.522-9.929,2.226-4,3.3-5.929L22.744.03l-.721,1.3-4.8,8.633L11.385.021,11.376,0Z" transform="translate(659.489 0.033)" fill="#fff"/><path d="M16.57,0,12.093,8.056,11.046,9.939l-5.524,9.94L0,29.819,11.372,29.8h0l.721-1.3,4.8-8.64h0l5.848,9.924,11.372-.016-5.848-9.924-5.85-9.926Z" transform="translate(732.958 0)" fill="#fff"/><path d="M11.376,0,0,.016,6.167,10.543l.007-.016L11.7,19.888,6.176,29.819,17.548,29.8h0l4.476-8.046,1.047-1.882,5.522-9.93,2.225-4,3.3-5.928L22.744.03l-.721,1.3-4.8,8.633L11.386.02Z" transform="translate(710.214 0)" fill="#fff"/><path d="M12.093,8.056,11.046,9.94,5.522,19.879,0,29.819,11.372,29.8h0l.721-1.3,4.8-8.64h0l5.848,9.924,11.371-.016-5.848-9.924-5.85-9.925L16.569,0Z" transform="translate(783.684 0.033)" fill="#fff"/><path d="M0,.016,6.167,10.543l.007-.016L11.7,19.888,6.175,29.819,17.547,29.8h0l4.477-8.046,1.047-1.882,5.522-9.929,2.225-4,3.3-5.929L22.744.03l-.721,1.3-4.8,8.633L11.385.021,11.376,0Z" transform="translate(760.94 0.033)" fill="#fff"/></g></g></svg>