<svg xmlns="http://www.w3.org/2000/svg" xmlns:xlink="http://www.w3.org/1999/xlink" width="42.5" height="40.389" viewBox="0 0 42.5 40.389"><defs><clipPath id="a"><path d="M0,0H31.875V36.2H0Z" transform="translate(0 0.194)" fill="none"/></clipPath></defs><g transform="translate(0 -0.209)"><g transform="translate(10.625 0.015)"><path d="M0,0H31.875V36.2H0Z" transform="translate(0 0.194)" fill="none"/><g clip-path="url(#a)"><path d="M24.332,36.2c-2.076,0-3.693-1.755-4.321-2.793l-5.485-7.264a.708.708,0,1,1,1.129-.853l5.508,7.294a.623.623,0,0,1,.043.065c.053.087,1.313,2.133,3.114,2.133a2.585,2.585,0,0,0,1.037-.225,2.627,2.627,0,0,0,1.565-2.588,4.452,4.452,0,0,0-.79-2.256L25.07,28.188a.7.7,0,0,1-.247-.355l-10.8-15.475a31.684,31.684,0,0,1-4.367,2.507,12.765,12.765,0,0,1-5.286,1.449,4.716,4.716,0,0,1-2.56-.661A4.129,4.129,0,0,1,0,12.042c0-.99.869-1.528,2.184-2.344A28.326,28.326,0,0,0,7.743,5.38C8.527,4.6,9.168,3.933,9.734,3.348l.023-.023C12.1.905,12.975,0,15.091,0H17.73c4.423,0,5.669.837,7.93,2.356l.451.3c4.1,2.735,5.455,3.865,5.511,3.911a.7.7,0,0,1,.254.543V27.625a.709.709,0,0,1-.708.708H26.9l.383.549a5.884,5.884,0,0,1,1.058,3.085,4.026,4.026,0,0,1-2.417,3.887A3.973,3.973,0,0,1,24.332,36.2ZM14.2,10.655a.737.737,0,0,1,.1.007.713.713,0,0,1,.475.3L25.91,26.916h4.549V7.454c-.515-.4-2.048-1.561-5.134-3.617l-.455-.3C22.708,2.08,21.72,1.417,17.73,1.417H15.091c-1.469,0-1.96.458-4.316,2.893-.559.578-1.223,1.263-2.031,2.073A29.657,29.657,0,0,1,2.937,10.9l-.006,0c-.639.4-1.515.937-1.515,1.139a2.774,2.774,0,0,0,1.156,2.414,3.323,3.323,0,0,0,1.8.445,11.593,11.593,0,0,0,4.681-1.315A28.486,28.486,0,0,0,13.761,10.8.719.719,0,0,1,14.2,10.655Z" transform="translate(0 0.194)" fill="#1d81b7"/></g></g><path d="M10.006,12.18a3.585,3.585,0,0,1-.733-.076,5.146,5.146,0,0,1-2.907-2.078L.128,1.114A.708.708,0,1,1,1.288.3L7.54,9.233c.181.274,1.729,2.476,3.914,1.042a2.608,2.608,0,0,0,.963-2.813l-.023-.21a.708.708,0,0,1,1.41-.137l.021.182a3.982,3.982,0,0,1-3.819,4.883" transform="translate(18.756 27.002)" fill="#1d81b7"/><path d="M9.119,11.106a3.946,3.946,0,0,1-2.653-.959.684.684,0,0,1-.086-.1L.128,1.115A.708.708,0,1,1,1.288.3l6.2,8.863a3.107,3.107,0,0,0,3.448.047A2.144,2.144,0,0,0,12.15,7.568l.7.132.671.231a3.533,3.533,0,0,1-1.951,2.552,5.5,5.5,0,0,1-2.45.623" transform="translate(12.504 28.788)" fill="#1d81b7"/><path d="M15.075,36.848a4.83,4.83,0,0,1-3.785-2.265L6.6,28.162c-.684-.938-2.817-3.37-4.472-3.37H.708A.708.708,0,0,1,0,24.083V3.542a.708.708,0,0,1,.708-.708H5.667a11.4,11.4,0,0,0,3.912-.946A26.815,26.815,0,0,1,19.833,0a.708.708,0,0,1,0,1.417,25.585,25.585,0,0,0-9.772,1.8A12.6,12.6,0,0,1,5.667,4.25H1.417V23.375h.708c2.667,0,5.322,3.548,5.616,3.953l4.717,6.454c.19.288,1.72,2.5,3.9,1.283,1.084-.607,1.327-1.16,1.422-1.621a.708.708,0,1,1,1.388.287A3.806,3.806,0,0,1,17.05,36.3a4,4,0,0,1-1.975.548" transform="translate(0 3.75)" fill="#1d81b7"/></g></svg>