<svg xmlns="http://www.w3.org/2000/svg" width="843.75" height="442.5" viewBox="0 0 843.75 442.5"><path d="M81.954,295l86.793,147.271L0,442.5Zm0,0,24.079-.033L81.957,295l81.954-147.5.005.009v0l0-.005h.006L245.87,0l86.8,147.271h-.007l86.8,147.266h0L506.25,441.8l-168.744.23,0,0L250.713,294.774h0l0-.007h0l0,.006H250.7L168.749,442.265Zm168.748-.234v0L163.92,147.507h0Zm168.721-.23h.02Z" transform="translate(337.5)" fill="#6fa935"/><path d="M173.582,295.153l86.8,147.117-168.752.23Zm0,0h0l0,0L92.381,157.513l-.03.061L0,.241,1,1.23,168.747,0l-2.639,5.444L168.746.7l86.8,147.111v0h0L337.5.462,424.29,147.578h0L337.5.464,506.25.239,424.3,147.581v0l0,0h0L342.341,294.931l0-.006h0L260.383,442.265Zm141.05-47.187L255.546,147.814h0l0,0h0Z" fill="#6fa935"/></svg>