<?xml version="1.0" encoding="UTF-8"?>
<svg width="60px" height="60px" viewBox="0 0 60 60" version="1.1" xmlns="http://www.w3.org/2000/svg" xmlns:xlink="http://www.w3.org/1999/xlink">
    <!-- Generator: Sketch 63.1 (92452) - https://sketch.com -->
    <title>noun_School_3046346 Copy</title>
    <desc>Created with Sketch.</desc>
    <g id="Design" stroke="none" stroke-width="1" fill="none" fill-rule="evenodd">
        <g id="noun_School_3046346-Copy" fill="#1D81B7" fill-rule="nonzero">
            <g id="Group">
                <path d="M30,22 C25.581722,22 22,25.581722 22,30 C22,34.418278 25.581722,38 30,38 C34.418278,38 38,34.418278 38,30 C37.9939408,25.5842342 34.4157658,22.0060592 30,22 Z M30,36 C26.6862915,36 24,33.3137085 24,30 C24,26.6862915 26.6862915,24 30,24 C33.3137085,24 36,26.6862915 36,30 C36,33.3137085 33.3137085,36 30,36 Z" id="Shape"></path>
                <path d="M59,31 L42,31 L42,28 L44,28 C44.5522847,28 45,27.5522847 45,27 L45,25 C44.9985117,24.6781426 44.8421956,24.3766758 44.58,24.19 L31,14.49 L31,12 L44,12 C44.4236174,11.9983124 44.8002085,11.7298911 44.94,11.33 C45.0849281,10.9297422 44.9557575,10.4816818 44.62,10.22 L40.6,7 L44.62,3.78 C44.9557575,3.51831819 45.0849281,3.07025784 44.94,2.67 C44.8002085,2.27010888 44.4236174,2.00168758 44,2 L31,2 L31,1 C31,0.44771525 30.5522847,0 30,0 L30,0 C29.4477153,0 29,0.44771525 29,1 L29,14.49 L15.42,24.19 C15.1578044,24.3766758 15.0014883,24.6781426 15,25 L15,27 C15,27.5522847 15.4477153,28 16,28 L18,28 L18,31 L1,31 C0.44771525,31 0,31.4477153 0,32 L0,36 C0,36.5522847 0.44771525,37 1,37 L2,37 L2,59 C2,59.5522847 2.44771525,60 3,60 L57,60 C57.5522847,60 58,59.5522847 58,59 L58,37 L59,37 C59.5522847,37 60,36.5522847 60,36 L60,32 C60,31.4477153 59.5522847,31 59,31 Z M31,4 L41.15,4 L38.38,6.22 C38.140309,6.40784846 38.0002945,6.69546951 38.0002945,7 C38.0002945,7.30453049 38.140309,7.59215154 38.38,7.78 L41.15,10 L31,10 L31,4 Z M18,58 L4,58 L4,37 L18,37 L18,58 Z M18,35 L2,35 L2,33 L18,33 L18,35 Z M33,58 L27,58 L27,50 C27,48.3431458 28.3431458,47 30,47 C31.6568542,47 33,48.3431458 33,50 L33,58 Z M40,27 L40,58 L35,58 L35,50 C35,47.2385763 32.7614237,45 30,45 C27.2385763,45 25,47.2385763 25,50 L25,58 L20,58 L20,27 C20,26.4477153 19.5522847,26 19,26 L17,26 L17,25.51 L30,16.23 L43,25.51 L43,26 L41,26 C40.4477153,26 40,26.4477153 40,27 Z M56,58 L42,58 L42,37 L56,37 L56,58 Z M58,35 L42,35 L42,33 L58,33 L58,35 Z" id="Shape"></path>
                <path d="M30,26 C30.5522847,26 31,26.4477153 31,27 L31,30 C30.9980257,30.2651121 30.8941958,30.5193164 30.71,30.71 L29.419,32 C29.2312725,32.1890048 28.9758915,32.2952946 28.7095,32.2952946 C28.4431085,32.2952946 28.1877275,32.1890048 28,32 L28,32 C27.8106873,31.8122334 27.7042017,31.5566375 27.7042017,31.29 C27.7042017,31.0233625 27.8106873,30.7677666 28,30.58 L29,29.589 L29,27 C29,26.4477153 29.4477153,26 30,26 Z" id="Path"></path>
            </g>
        </g>
    </g>
</svg>