<?xml version="1.0" encoding="UTF-8"?>
<svg width="44px" height="60px" viewBox="0 0 44 60" version="1.1" xmlns="http://www.w3.org/2000/svg" xmlns:xlink="http://www.w3.org/1999/xlink">
    <!-- Generator: Sketch 63.1 (92452) - https://sketch.com -->
    <title>noun_School_3046342 Copy</title>
    <desc>Created with Sketch.</desc>
    <g id="Design" stroke="none" stroke-width="1" fill="none" fill-rule="evenodd">
        <g id="noun_School_3046342-Copy" transform="translate(0.000000, -0.000000)" fill="#1D81B7" fill-rule="nonzero">
            <g id="Group">
                <path d="M43,0 L1,0 C0.44771525,0 0,0.44771525 0,1 L0,49 C0,49.5522847 0.44771525,50 1,50 L12.47,50 L9.65,56.04 C9.48000978,56.4067059 9.54748811,56.8396871 9.82100566,57.1372742 C10.0945232,57.4348613 10.5202912,57.5385321 10.9,57.4 L13.95,56.29 L15.06,59.34 C15.1994998,59.7213298 15.5543734,59.9815705 15.96,60 L16,60 C16.390571,60.0009665 16.7459609,59.7744542 16.91,59.42 L20.85,50.94 C21.6145798,51.0199988 22.3854202,51.0199988 23.15,50.94 L27.09,59.42 C27.2540391,59.7744542 27.609429,60.0009665 28,60 L28.04,60 C28.4456266,59.9815705 28.8005002,59.7213298 28.94,59.34 L30.05,56.29 L33.1,57.4 C33.4797088,57.5385321 33.9054768,57.4348613 34.1789943,57.1372742 C34.4525119,56.8396871 34.5199902,56.4067059 34.35,56.04 L31.53,50 L43,50 C43.5522847,50 44,49.5522847 44,49 L44,1 C44,0.44771525 43.5522847,0 43,0 Z M13.82,54.21 L12.49,54.7 L15.14,49.02 C15.42,49.2 15.71,49.37 16,49.52 L13.82,54.21 Z M16.11,56.39 L15.63,55.06 L17.84,50.31 C18.16,50.41 18.48,50.51 18.81,50.59 L16.11,56.39 Z M22,49 C15.9248678,49 11,44.0751322 11,38 C11,31.9248678 15.9248678,27 22,27 C28.0751322,27 33,31.9248678 33,38 C32.9961387,44.0735321 28.0735321,48.9961387 22,49 Z M27.89,56.39 L25.19,50.59 C25.52,50.51 25.84,50.41 26.16,50.31 L28.37,55.06 L27.89,56.39 Z M30.18,54.21 L28,49.52 C28.29,49.37 28.58,49.2 28.86,49.02 L31.51,54.7 L30.18,54.21 Z M42,48 L30.59,48 L30.5,47.81 C34.608941,44.2592234 36.0777775,38.5284508 34.1833914,33.4389801 C32.2890052,28.3495094 27.4305995,24.9738422 22,24.9738422 C16.5694005,24.9738422 11.7109948,28.3495094 9.81660862,33.4389801 C7.92222247,38.5284508 9.39105897,44.2592234 13.5,47.81 L13.41,48 L2,48 L2,2 L42,2 L42,48 Z" id="Shape"></path>
                <path d="M30.32,35.63 C30.0345562,35.4136422 29.7848494,35.1538122 29.58,34.86 C29.5065841,34.4910664 29.4964395,34.1123347 29.55,33.74 C29.7363264,32.8022616 29.510483,31.8296778 28.93,31.07 C28.1740797,30.4897282 27.2045821,30.2637551 26.27,30.45 C25.8943342,30.5037522 25.5122845,30.4936092 25.14,30.42 C24.8485701,30.2122631 24.5891484,29.9629488 24.37,29.68 C23.8391356,28.8590394 22.9706569,28.3166983 22,28.2 C21.0293431,28.3166983 20.1608644,28.8590394 19.63,29.68 C19.4108516,29.9629488 19.1514299,30.2122631 18.86,30.42 C18.4877155,30.4936092 18.1056658,30.5037522 17.73,30.45 C16.7954179,30.2637551 15.8259203,30.4897282 15.07,31.07 C14.489517,31.8296778 14.2636736,32.8022616 14.45,33.74 C14.5035605,34.1123347 14.4934159,34.4910664 14.42,34.86 C14.2151506,35.1538122 13.9654438,35.4136422 13.68,35.63 C12.8590394,36.1608644 12.3166983,37.0293431 12.2,38 C12.3166983,38.9706569 12.8590394,39.8391356 13.68,40.37 C13.9654438,40.5863578 14.2151506,40.8461878 14.42,41.14 C14.4934159,41.5089336 14.5035605,41.8876653 14.45,42.26 C14.2636736,43.1977384 14.489517,44.1703222 15.07,44.93 C15.8259203,45.5102718 16.7954179,45.7362449 17.73,45.55 C18.1056658,45.4962478 18.4877155,45.5063908 18.86,45.58 C19.1514299,45.7877369 19.4108516,46.0370512 19.63,46.32 C20.1608644,47.1409606 21.0293431,47.6833017 22,47.8 C22.9706569,47.6833017 23.8391356,47.1409606 24.37,46.32 C24.5891484,46.0370512 24.8485701,45.7877369 25.14,45.58 C25.5122845,45.5063908 25.8943342,45.4962478 26.27,45.55 C27.2045821,45.7362449 28.1740797,45.5102718 28.93,44.93 C29.510483,44.1703222 29.7363264,43.1977384 29.55,42.26 C29.4964395,41.8876653 29.5065841,41.5089336 29.58,41.14 C29.7848494,40.8461878 30.0345562,40.5863578 30.32,40.37 C31.1409606,39.8391356 31.6833017,38.9706569 31.8,38 C31.6833017,37.0293431 31.1409606,36.1608644 30.32,35.63 Z M29,38.87 C28.4656873,39.2643367 28.0308135,39.7779672 27.73,40.37 C27.5165581,41.0207585 27.4549841,41.7117551 27.55,42.39 C27.5987105,42.7626009 27.5885871,43.140541 27.52,43.51 C27.1483487,43.5874962 26.7662006,43.6010235 26.39,43.55 C25.7116384,43.4599861 25.0217579,43.5214606 24.37,43.73 C23.7779672,44.0308135 23.2643367,44.4656873 22.87,45 C22.66,45.24 22.17,45.8 22,45.8 C21.83,45.8 21.34,45.24 21.13,45 C20.7356633,44.4656873 20.2220328,44.0308135 19.63,43.73 C19.2250299,43.5755524 18.7931318,43.5041362 18.36,43.52 C18.1,43.52 17.85,43.53 17.61,43.55 C17.2373991,43.5987105 16.859459,43.5885871 16.49,43.52 C16.4125038,43.1483487 16.3989765,42.7662006 16.45,42.39 C16.5450159,41.7117551 16.4834419,41.0207585 16.27,40.37 C15.9691865,39.7779672 15.5343127,39.2643367 15,38.87 C14.76,38.66 14.2,38.17 14.2,38 C14.2,37.83 14.76,37.34 15,37.13 C15.5343127,36.7356633 15.9691865,36.2220328 16.27,35.63 C16.4834419,34.9792415 16.5450159,34.2882449 16.45,33.61 C16.4012895,33.2373991 16.4114129,32.859459 16.48,32.49 C16.8516513,32.4125038 17.2337994,32.3989765 17.61,32.45 C18.2882449,32.5450159 18.9792415,32.4834419 19.63,32.27 C20.2220328,31.9691865 20.7356633,31.5343127 21.13,31 C21.34,30.76 21.83,30.2 22,30.2 C22.17,30.2 22.66,30.76 22.87,31 C23.2643367,31.5343127 23.7779672,31.9691865 24.37,32.27 C25.0207585,32.4834419 25.7117551,32.5450159 26.39,32.45 C26.7626009,32.4012895 27.140541,32.4114129 27.51,32.48 C27.5874962,32.8516513 27.6010235,33.2337994 27.55,33.61 C27.4549841,34.2882449 27.5165581,34.9792415 27.73,35.63 C28.0308135,36.2220328 28.4656873,36.7356633 29,37.13 C29.24,37.34 29.8,37.83 29.8,38 C29.8,38.17 29.24,38.66 29,38.87 Z" id="Shape"></path>
                <rect id="Rectangle" x="17" y="5" width="10" height="2"></rect>
                <rect id="Rectangle" x="6" y="11" width="32" height="2"></rect>
                <rect id="Rectangle" x="6" y="17" width="32" height="2"></rect>
            </g>
        </g>
    </g>
</svg>