<svg xmlns="http://www.w3.org/2000/svg" width="42.414" height="41" viewBox="0 0 42.414 41"><g transform="translate(0 0)"><path d="M26.155,7.069H.707A.707.707,0,0,1,0,6.362V.707A.707.707,0,0,1,.707,0H26.155a.708.708,0,0,1,.707.707V6.362A.708.708,0,0,1,26.155,7.069ZM1.414,1.414V5.656H25.448V1.414Z" transform="translate(5.655)" fill="#1d81b7"/><path d="M26.155,7.069H.707A.707.707,0,0,1,0,6.362V.707A.707.707,0,0,1,.707,0H26.155a.708.708,0,0,1,.707.707V6.362A.708.708,0,0,1,26.155,7.069ZM1.414,1.414V5.656H25.448V1.414Z" transform="translate(1.414 5.655)" fill="#1d81b7"/><path d="M15.34,7.069H.707A.707.707,0,0,1,0,6.362V.707A.707.707,0,0,1,.707,0H26.155a.708.708,0,0,1,.707.707V3.86a.7.7,0,0,1-.27.555.708.708,0,0,1-.6.131,11.419,11.419,0,0,0-2.662-.305,6.707,6.707,0,0,0-.883.043A11.78,11.78,0,0,0,16.933,6.09a.374.374,0,0,1-.044.026l-.023.016,0,0a11.466,11.466,0,0,0-1.071.771A.71.71,0,0,1,15.34,7.069ZM1.414,1.414V5.656H15.091c.3-.234.628-.466,1-.708a.5.5,0,0,1,.135-.085A13.085,13.085,0,0,1,22.3,2.878a7.805,7.805,0,0,1,1.025-.05A13.261,13.261,0,0,1,25.448,3V1.414Z" transform="translate(5.655 11.31)" fill="#1d81b7"/><path d="M9.239,7.069H.707A.707.707,0,0,1,0,6.362V.707A.707.707,0,0,1,.707,0H7.168a.706.706,0,0,1,.7.634,11.527,11.527,0,0,0,1.8,5.126l.058.088.005.011a.7.7,0,0,1,.211.5A.707.707,0,0,1,9.239,7.069ZM1.414,1.414V5.656H7.966A12.914,12.914,0,0,1,6.545,1.414Z" transform="translate(9.19 28.276)" fill="#1d81b7"/><path d="M12.129,7.069H.707A.707.707,0,0,1,0,6.362V.707A.707.707,0,0,1,.707,0H12.745a.707.707,0,0,1,.668.942,11.989,11.989,0,0,0-.688,4.006,6.645,6.645,0,0,0,.044.881l.013.143c0,.049.007.1.013.144a.715.715,0,0,1,.043.246A.708.708,0,0,1,12.129,7.069ZM1.414,1.414V5.656h9.915c-.017-.245-.019-.5-.019-.707a13.44,13.44,0,0,1,.474-3.534Z" transform="translate(4.241 22.621)" fill="#1d81b7"/><path d="M26.155,7.069H.707A.707.707,0,0,1,0,6.362V.707A.707.707,0,0,1,.707,0H17a.705.705,0,0,1,.588.315A11.914,11.914,0,0,0,24.8,5.335a12.934,12.934,0,0,0,1.436.247.705.705,0,0,1,.63.7v.077A.708.708,0,0,1,26.155,7.069ZM1.414,1.414V5.656H21.553a13.436,13.436,0,0,1-4.925-4.242Z" transform="translate(1.414 33.931)" fill="#1d81b7"/><path d="M16.987,7.069H.707A.707.707,0,0,1,0,6.362V.707A.707.707,0,0,1,.707,0H21a.707.707,0,0,1,.442,1.258,11.948,11.948,0,0,0-3.55,4.725c-.1.24-.171.435-.233.615A.71.71,0,0,1,16.987,7.069ZM1.414,1.414V5.656H16.5l.031-.08.05-.127a13.374,13.374,0,0,1,2.614-4.035Z" transform="translate(0 16.966)" fill="#1d81b7"/><path d="M13.431,26.862a13.509,13.509,0,0,1-3.091-.357,13.313,13.313,0,0,1-8.065-5.612,1.515,1.515,0,0,1-.1-.145l-.027-.04-.029-.043A12.949,12.949,0,0,1,.1,14.918a2.874,2.874,0,0,1-.041-.347l-.008-.1A7.941,7.941,0,0,1,0,13.431,13.436,13.436,0,0,1,.769,8.954c.07-.2.149-.407.257-.678A13.387,13.387,0,0,1,5,2.984,12.44,12.44,0,0,1,6.2,2.12a.538.538,0,0,1,.135-.086A13.072,13.072,0,0,1,12.406.051,7.659,7.659,0,0,1,13.431,0a12.833,12.833,0,0,1,2.994.345,13.427,13.427,0,0,1-2.994,26.518Zm0-25.448a6.73,6.73,0,0,0-.883.043A11.784,11.784,0,0,0,7.035,3.263.347.347,0,0,1,7,3.286l-.007,0-.029.02a11.553,11.553,0,0,0-1.071.771,11.98,11.98,0,0,0-3.557,4.73c-.067.168-.154.39-.233.614a12.011,12.011,0,0,0-.689,4.006,6.645,6.645,0,0,0,.044.881l.013.143,0,.035a2.052,2.052,0,0,0,.025.216A11.733,11.733,0,0,0,3.308,19.9l.059.089.019.028c.01.015.019.03.03.045a12,12,0,0,0,7.243,5.068,12.7,12.7,0,0,0,1.436.247,12.546,12.546,0,0,0,1.336.074A12.013,12.013,0,0,0,16.1,1.722,11.468,11.468,0,0,0,13.431,1.414Z" transform="translate(15.551 14.138)" fill="#1d81b7"/><path d="M9.19,18.379A9.176,9.176,0,0,1,.035,9.892,5.765,5.765,0,0,1,0,9.19,9.185,9.185,0,0,1,4.242,1.449l.028-.018L4.3,1.415A9.031,9.031,0,0,1,8.489.034,5.493,5.493,0,0,1,9.19,0a9.189,9.189,0,0,1,0,18.379Zm0-16.965a4.485,4.485,0,0,0-.566.027A7.6,7.6,0,0,0,5.053,2.609L5,2.639A7.77,7.77,0,0,0,1.414,9.19a4.539,4.539,0,0,0,.028.566,7.767,7.767,0,0,0,5.952,7A7.776,7.776,0,1,0,9.19,1.414Z" transform="translate(19.793 18.379)" fill="#1d81b7"/></g></svg>