<svg xmlns="http://www.w3.org/2000/svg" width="186" height="23.155" viewBox="0 0 186 23.155"><g transform="translate(0 -1.5)"><text transform="translate(47 1.655)" font-size="18.959" font-family="Rubik-Regular, Rubik" letter-spacing="0.041em"><tspan x="9.307" y="18">Young Africa</tspan></text><g transform="translate(0 1.5)"><path d="M4.1,14.748l4.1-7.375,4.339,7.363h0L8.194,7.375,12.291,0,16.63,7.363l4.339,7.362h0l4.339,7.363-8.436.012-4.339-7.362h0l-4.1,7.374L0,22.123ZM4.1,14.748Zm8.437-.012,8.435-.011h0l-8.435.011Z" transform="translate(16.953 0)" fill="#39a935"/><path d="M8.678,14.772l8.435-.012-8.435.012L4.339,7.41,12.774,7.4,4.339,7.41,8.436.035,12.774,7.4h0l4.1-7.374L25.308.012l-4.1,7.375-4.1,7.375h0l-4.1,7.374-8.436.012ZM0,.012,8.436,0l-4.1,7.375Z" transform="translate(0 0)" fill="#1d70b7"/></g></g></svg>