<svg xmlns="http://www.w3.org/2000/svg" width="15.038" height="12.221" viewBox="0 0 15.038 12.221"><path d="M21.538,9.247a6.156,6.156,0,0,1-1.772.485,3.094,3.094,0,0,0,1.357-1.707,6.176,6.176,0,0,1-1.959.748,3.088,3.088,0,0,0-5.258,2.814A8.758,8.758,0,0,1,7.547,8.364,3.089,3.089,0,0,0,8.5,12.484,3.063,3.063,0,0,1,7.1,12.1c0,.013,0,.026,0,.039a3.087,3.087,0,0,0,2.475,3.025,3.1,3.1,0,0,1-1.393.053,3.089,3.089,0,0,0,2.882,2.143A6.228,6.228,0,0,1,6.5,18.635a8.774,8.774,0,0,0,13.507-7.392c0-.134,0-.267-.009-.4a6.257,6.257,0,0,0,1.54-1.6Z" transform="translate(-6.5 -7.8)" fill="#ffffff"/></svg>